<svg aria-hidden="true" style="position:absolute;width:0;height:0" xmlns="http://www.w3.org/2000/svg" overflow="hidden"><defs><symbol id="icon-logo" viewBox="0 0 32 32"><path fill="var(--color4, #F70C41)" d="M14.392.049a15.524 15.524 0 00-7.173 2.49 15.987 15.987 0 00-6.597 8.957 16.446 16.446 0 00-.549 2.821c-.064.567-.091 2.132-.045 2.775a16.404 16.404 0 001.107 4.899c.379.965 1.107 2.314 1.717 3.191 1.868 2.681 4.492 4.726 7.48 5.827.249.091.482.176.522.188l.067.018v-1.186c0-.922-.009-1.186-.036-1.195-.021-.006-.167-.039-.325-.076-1.077-.249-2.111-.971-2.742-1.917a4.62 4.62 0 01-.695-1.614c-.064-.27-.067-.358-.076-2.39l-.012-2.111-.264-.033A2.7 2.7 0 014.517 18.7a2.964 2.964 0 01-.003-1.265c.127-.516.37-.934.758-1.304.449-.431.928-.649 1.617-.737l.143-.018.015-1.219c.015-1.301.036-1.547.173-2.235.261-1.31.807-2.493 1.668-3.609.288-.376 1.086-1.165 1.471-1.459a8.64 8.64 0 014.025-1.717c.476-.073 2.566-.091 3.133-.027a8.349 8.349 0 012.791.807 8.602 8.602 0 014.532 5.49c.231.88.276 1.338.276 2.812 0 1.137.003 1.192.055 1.192.121 0 .549.127.755.224 1.01.479 1.602 1.459 1.547 2.551a2.582 2.582 0 01-.776 1.747c-.367.367-.898.652-1.362.731l-.224.036.021 1.959c.024 2.087.018 2.202-.121 2.76a4.612 4.612 0 01-1.016 1.908c-.673.767-1.671 1.329-2.654 1.492l-.227.039v2.196l.312-.118a15.918 15.918 0 008.993-8.948c1.85-4.629 1.447-9.934-1.08-14.207a16.067 16.067 0 00-5.29-5.426A15.59 15.59 0 0016.96.035c-.555-.045-2.008-.036-2.566.015z"/><path fill="var(--color4, #F70C41)" d="M14.984 6.521a7.125 7.125 0 00-4.875 2.572l-.076.097.115.146c.224.282.828.846 1.189 1.113a7.216 7.216 0 003.024 1.31c.382.067.528.076 1.462.091.698.012 1.159.003 1.395-.021 1.583-.158 2.939-.758 4.134-1.829.234-.209.758-.78.758-.828 0-.052-.516-.616-.746-.819-.595-.522-1.022-.807-1.696-1.134a6.78 6.78 0 00-2.123-.655c-.355-.055-2.102-.085-2.563-.042z"/><path fill="var(--color4, #F70C41)" d="M9.109 10.704a8.38 8.38 0 00-.476 1.489c-.115.582-.14.949-.14 2.114v1.071h15.202l-.015-1.238c-.015-1.341-.033-1.535-.206-2.248a8.972 8.972 0 00-.191-.652c-.121-.331-.322-.777-.352-.777a.483.483 0 00-.115.121 8.183 8.183 0 01-.446.437c-1.392 1.271-3.006 2.011-4.883 2.238-.449.052-2.363.055-2.821 0a8.569 8.569 0 01-5.093-2.436l-.358-.352-.106.231zM6.718 16.895a1.228 1.228 0 00-.716 1.674c.112.24.358.479.601.595l.176.082 3.534.018c1.944.012 4.301.021 5.241.024l1.705.003v1.568c0 1.705.009 1.823.167 2.132.1.197.334.449.534.579.437.279 1.08.282 1.523.006.285-.173.51-.455.634-.786.067-.176.067-.209.079-1.853l.009-1.677 4.926-.015.206-.097c.249-.118.455-.322.582-.573.085-.167.091-.203.091-.513 0-.3-.009-.352-.082-.51a1.407 1.407 0 00-.598-.607l-.2-.097-9.115-.006c-8.93-.006-9.118-.006-9.297.052z"/><path fill="var(--color4, #F70C41)" d="M8.472 22.725c.009 1.723.018 2.038.061 2.208.306 1.238 1.131 2.081 2.378 2.436l.237.067 4.792.009c3.464.006 4.859 0 5.035-.024a3.215 3.215 0 002.687-2.584c.039-.206.046-2.554.009-3.582l-.021-.537h-2.023v.952c0 .743-.009 1.007-.049 1.204a2.818 2.818 0 01-.743 1.435c-.786.831-1.905 1.125-2.985.786-.919-.291-1.623-1.013-1.917-1.972-.079-.264-.082-.285-.097-1.329l-.018-1.062-7.358-.015.012 2.008zM12.369 30.186l-.009 1.283-.485.03.44.1c2.402.543 5.114.5 7.386-.112.188-.052.2-.058.1-.061l-.115-.003v-2.518h-7.31l-.006 1.28z"/></symbol></defs></svg>