<svg aria-hidden="true" style="position:absolute;width:0;height:0" xmlns="http://www.w3.org/2000/svg" overflow="hidden"><defs><symbol id="icon-home" viewBox="0 0 32 32"><path fill="var(--color1, #d31342)" d="M31.618 15.643c.553-.608.5-1.541-.119-2.082L17.863 1.63c-.619-.541-1.611-.53-2.217.026L1.964 14.198a1.446 1.446 0 00-.066 2.079l.343.357c.569.592 1.489.663 2.053.157l1.023-.916v13.406c0 .823.666 1.488 1.488 1.488h5.333c.822 0 1.488-.666 1.488-1.488v-9.379h6.803v9.379c-.012.822.576 1.488 1.398 1.488h5.652c.822 0 1.488-.666 1.488-1.488V16.064l.631.554c.349.307 1.078.061 1.631-.548l.388-.426z"/></symbol><symbol id="icon-ellipse" viewBox="0 0 32 32"><path fill="var(--color2, #d9d9d9)" d="M32 16c0 8.837-7.163 16-16 16S0 24.837 0 16 7.163 0 16 0s16 7.163 16 16z"/></symbol><symbol id="icon-facebook" viewBox="0 0 16 32"><path fill="var(--color3, #fff)" d="M14.143 15.972h-4.034v14.865H3.997V15.972H1.09v-5.224h2.907V7.367c0-2.418 1.142-6.203 6.166-6.203l4.527.019v5.071h-3.285c-.539 0-1.296.271-1.296 1.424v3.075h4.567l-.534 5.219z"/></symbol><symbol id="icon-telegram" viewBox="0 0 32 32"><path fill="var(--color3, #fff)" d="M12.613 19.671l-.491 6.444c.702 0 1.006-.282 1.371-.62l3.293-2.937 6.822 4.663c1.251.651 2.133.308 2.47-1.074l4.478-19.585.001-.001c.397-1.726-.669-2.401-1.888-1.978L2.346 13.989c-1.796.651-1.769 1.585-.305 2.009l6.73 1.954 15.632-9.129c.736-.455 1.404-.203.854.252L12.612 19.672z"/></symbol><symbol id="icon-github" viewBox="0 0 32 32"><path fill="var(--color3, #fff)" d="M16 0C7.212 0 0 7.212 0 16c0 7.499 5.262 14.312 12.25 16v-5.293c-.692.152-1.33.156-2.034-.052-.946-.279-1.714-.909-2.284-1.869-.364-.613-1.008-1.278-1.68-1.23l-.165-1.868c1.453-.124 2.711.886 3.457 2.14.332.558.713.884 1.203 1.029.473.14.982.072 1.574-.137.149-1.186.692-1.63 1.102-2.255v-.001c-4.167-.622-5.828-2.832-6.488-4.578-.874-2.317-.405-5.212 1.14-7.041.03-.036.084-.129.063-.194-.708-2.139.155-3.909.187-4.097.817.242.95-.243 3.551 1.337l.449.27c.188.112.129.048.317.034A13.544 13.544 0 0116 7.723c1.136.015 2.273.178 3.404.484l.145.015c-.013-.002.04-.009.127-.062 3.248-1.968 3.132-1.324 4.003-1.608.032.188.883 1.987.182 4.099-.095.291 2.816 2.956 1.203 7.235-.659 1.746-2.32 3.957-6.487 4.578v.001c.534.814 1.176 1.247 1.173 2.927V32C26.738 30.312 32 23.499 32 16c0-8.788-7.212-16-16-16z"/></symbol><symbol id="arrow" viewBox="0 0 32 32"><path d="M19.414 27.414l10-10a2 2 0 000-2.828l-10-10a2 2 0 10-2.828 2.828L23.172 14H4a2 2 0 100 4h19.172l-6.586 6.586c-.39.39-.586.902-.586 1.414s.195 1.024.586 1.414a2 2 0 002.828 0z"/>
<symbol id="icon-logo" viewBox="0 0 32 32">
<path fill="var(--color4, #F70C41)" d="M14.392.049a15.524 15.524 0 00-7.173 2.49 15.987 15.987 0 00-6.597 8.957 16.446 16.446 0 00-.549 2.821c-.064.567-.091 2.132-.045 2.775a16.404 16.404 0 001.107 4.899c.379.965 1.107 2.314 1.717 3.191 1.868 2.681 4.492 4.726 7.48 5.827.249.091.482.176.522.188l.067.018v-1.186c0-.922-.009-1.186-.036-1.195-.021-.006-.167-.039-.325-.076-1.077-.249-2.111-.971-2.742-1.917a4.62 4.62 0 01-.695-1.614c-.064-.27-.067-.358-.076-2.39l-.012-2.111-.264-.033A2.7 2.7 0 014.517 18.7a2.964 2.964 0 01-.003-1.265c.127-.516.37-.934.758-1.304.449-.431.928-.649 1.617-.737l.143-.018.015-1.219c.015-1.301.036-1.547.173-2.235.261-1.31.807-2.493 1.668-3.609.288-.376 1.086-1.165 1.471-1.459a8.64 8.64 0 014.025-1.717c.476-.073 2.566-.091 3.133-.027a8.349 8.349 0 012.791.807 8.602 8.602 0 014.532 5.49c.231.88.276 1.338.276 2.812 0 1.137.003 1.192.055 1.192.121 0 .549.127.755.224 1.01.479 1.602 1.459 1.547 2.551a2.582 2.582 0 01-.776 1.747c-.367.367-.898.652-1.362.731l-.224.036.021 1.959c.024 2.087.018 2.202-.121 2.76a4.612 4.612 0 01-1.016 1.908c-.673.767-1.671 1.329-2.654 1.492l-.227.039v2.196l.312-.118a15.918 15.918 0 008.993-8.948c1.85-4.629 1.447-9.934-1.08-14.207a16.067 16.067 0 00-5.29-5.426A15.59 15.59 0 0016.96.035c-.555-.045-2.008-.036-2.566.015z"/>
<path fill="var(--color4, #F70C41)" d="M14.984 6.521a7.125 7.125 0 00-4.875 2.572l-.076.097.115.146c.224.282.828.846 1.189 1.113a7.216 7.216 0 003.024 1.31c.382.067.528.076 1.462.091.698.012 1.159.003 1.395-.021 1.583-.158 2.939-.758 4.134-1.829.234-.209.758-.78.758-.828 0-.052-.516-.616-.746-.819-.595-.522-1.022-.807-1.696-1.134a6.78 6.78 0 00-2.123-.655c-.355-.055-2.102-.085-2.563-.042z"/>
<path fill="var(--color4, #F70C41)" d="M9.109 10.704a8.38 8.38 0 00-.476 1.489c-.115.582-.14.949-.14 2.114v1.071h15.202l-.015-1.238c-.015-1.341-.033-1.535-.206-2.248a8.972 8.972 0 00-.191-.652c-.121-.331-.322-.777-.352-.777a.483.483 0 00-.115.121 8.183 8.183 0 01-.446.437c-1.392 1.271-3.006 2.011-4.883 2.238-.449.052-2.363.055-2.821 0a8.569 8.569 0 01-5.093-2.436l-.358-.352-.106.231zM6.718 16.895a1.228 1.228 0 00-.716 1.674c.112.24.358.479.601.595l.176.082 3.534.018c1.944.012 4.301.021 5.241.024l1.705.003v1.568c0 1.705.009 1.823.167 2.132.1.197.334.449.534.579.437.279 1.08.282 1.523.006.285-.173.51-.455.634-.786.067-.176.067-.209.079-1.853l.009-1.677 4.926-.015.206-.097c.249-.118.455-.322.582-.573.085-.167.091-.203.091-.513 0-.3-.009-.352-.082-.51a1.407 1.407 0 00-.598-.607l-.2-.097-9.115-.006c-8.93-.006-9.118-.006-9.297.052z"/>
<path fill="var(--color4, #F70C41)" d="M8.472 22.725c.009 1.723.018 2.038.061 2.208.306 1.238 1.131 2.081 2.378 2.436l.237.067 4.792.009c3.464.006 4.859 0 5.035-.024a3.215 3.215 0 002.687-2.584c.039-.206.046-2.554.009-3.582l-.021-.537h-2.023v.952c0 .743-.009 1.007-.049 1.204a2.818 2.818 0 01-.743 1.435c-.786.831-1.905 1.125-2.985.786-.919-.291-1.623-1.013-1.917-1.972-.079-.264-.082-.285-.097-1.329l-.018-1.062-7.358-.015.012 2.008zM12.369 30.186l-.009 1.283-.485.03.44.1c2.402.543 5.114.5 7.386-.112.188-.052.2-.058.1-.061l-.115-.003v-2.518h-7.31l-.006 1.28z"/></symbol><symbol id="btn-pointer" viewBox="0 0 26 32"><path fill="none" stroke="var(--color, #d41443)" stroke-linejoin="round" stroke-linecap="round" stroke-width="6.4" d="M5.172 3.2L19.341 16 5.172 28.8"/></symbol> 
</defs></svg>